<svg width="100" height="100" viewBox="0 0 185 136" fill="none" xmlns="http://www.w3.org/2000/svg">
<path d="M180.499 18L180.499 131.527" stroke="#2D2D2D" stroke-width="6"/>
<path d="M90.9024 24.4409L91.0036 126.527" stroke="#2D2D2D" stroke-width="6"/>
<path d="M4.00372 18L4.00372 131.527" stroke="#2D2D2D" stroke-width="6"/>
<path d="M14.0037 8.00003L14.0037 121.527" stroke="#2D2D2D" stroke-width="4"/>
<path d="M23.9918 3.34311L23.9837 117.779" stroke="#2D2D2D" stroke-width="4"/>
<path d="M22.9991 4.82082C66.8391 -5.58046 86.5991 15.2731 90.9991 27" stroke="#2D2D2D" stroke-width="4"/>
<path d="M32.9991 21.4668C63.945 16.0582 77.8933 26.902 80.9991 33" stroke="#2D2D2D" stroke-width="4"/>
<path d="M32.9991 39.4668C63.945 34.0582 77.8933 44.902 80.9991 51" stroke="#2D2D2D" stroke-width="4"/>
<path d="M32.9991 56.4668C63.945 51.0582 77.8933 61.902 80.9991 68" stroke="#2D2D2D" stroke-width="4"/>
<path d="M32.9991 56.4668C63.945 51.0582 77.8933 61.902 80.9991 68" stroke="#2D2D2D" stroke-width="4"/>
<path d="M32.9991 73.4668C63.945 68.0582 77.8933 78.902 80.9991 85" stroke="#2D2D2D" stroke-width="4"/>
<path d="M32.9991 94.4668C63.945 89.0582 77.8933 99.902 80.9991 106" stroke="#2D2D2D" stroke-width="4"/>
<path d="M152.999 21.4668C120.119 16.0582 105.299 26.902 101.999 33" stroke="#2D2D2D" stroke-width="4"/>
<path d="M152.999 39.4668C120.119 34.0582 105.299 44.902 101.999 51" stroke="#2D2D2D" stroke-width="4"/>
<path d="M152.999 56.4668C120.119 51.0582 105.299 61.902 101.999 68" stroke="#2D2D2D" stroke-width="4"/>
<path d="M152.999 73.4668C120.119 68.0582 105.299 78.902 101.999 85" stroke="#2D2D2D" stroke-width="4"/>
<path d="M152.999 94.4668C120.119 89.0582 105.299 99.902 101.999 106" stroke="#2D2D2D" stroke-width="4"/>
<path d="M162.999 4.82082C116.58 -5.58046 95.658 15.2731 90.9991 27" stroke="#2D2D2D" stroke-width="4"/>
<path d="M22.9991 116.031C66.8391 108.542 86.5991 123.557 90.9991 132" stroke="#2D2D2D" stroke-width="4"/>
<path d="M162.999 116.031C116.58 108.542 95.658 123.557 90.9991 132" stroke="#2D2D2D" stroke-width="4"/>
<path d="M162.004 2.00003L161.982 118.003" stroke="#2D2D2D" stroke-width="4"/>
<path d="M171.004 8.00003L171.004 121.527" stroke="#2D2D2D" stroke-width="4"/>
<path d="M181.999 128.5L1.00001 130.084" stroke="#2D2D2D" stroke-width="6"/>
<rect x="81.4991" y="129.5" width="19" height="6" rx="3" fill="#2D2D2D" stroke="#2D2D2D"/>
</svg>
