<svg width="175" height="31" viewBox="0 0 175 31" fill="none" xmlns="http://www.w3.org/2000/svg">
<rect x="15.478" y="14.7021" width="22.0443" height="4.59574" fill="#4AB32C"/>
<rect x="38.4602" y="5" width="5.62832" height="24" rx="2.81416" fill="#4AB32C"/>
<rect x="8.91156" y="5" width="5.62832" height="24" rx="2.81416" fill="#4AB32C"/>
<rect x="44.5576" y="8.06384" width="4.69027" height="17.8723" rx="2.34513" fill="#4AB32C"/>
<rect x="3.75211" y="8.06384" width="4.69027" height="17.8723" rx="2.34513" fill="#4AB32C"/>
<rect y="12.6596" width="3.28319" height="8.68085" rx="1.64159" fill="#4AB32C"/>
<rect x="49.7168" y="12.6596" width="3.28319" height="8.68085" rx="1.64159" fill="#4AB32C"/>
<path d="M67.138 25.312C65.6993 25.312 64.304 25.1213 62.952 24.74C61.6173 24.3413 60.5427 23.83 59.728 23.206L61.158 20.034C61.938 20.606 62.8653 21.0653 63.94 21.412C65.0147 21.7587 66.0893 21.932 67.164 21.932C68.36 21.932 69.244 21.7587 69.816 21.412C70.388 21.048 70.674 20.5713 70.674 19.982C70.674 19.5487 70.5007 19.1933 70.154 18.916C69.8247 18.6213 69.3913 18.3873 68.854 18.214C68.334 18.0407 67.6233 17.85 66.722 17.642C65.3353 17.3127 64.2 16.9833 63.316 16.654C62.432 16.3247 61.6693 15.796 61.028 15.068C60.404 14.34 60.092 13.3693 60.092 12.156C60.092 11.0987 60.378 10.1453 60.95 9.296C61.522 8.42933 62.38 7.74467 63.524 7.242C64.6853 6.73933 66.098 6.488 67.762 6.488C68.9233 6.488 70.0587 6.62667 71.168 6.904C72.2773 7.18133 73.248 7.58 74.08 8.1L72.78 11.298C71.0987 10.3447 69.4173 9.868 67.736 9.868C66.5573 9.868 65.682 10.0587 65.11 10.44C64.5553 10.8213 64.278 11.324 64.278 11.948C64.278 12.572 64.5987 13.04 65.24 13.352C65.8987 13.6467 66.8953 13.9413 68.23 14.236C69.6167 14.5653 70.752 14.8947 71.636 15.224C72.52 15.5533 73.274 16.0733 73.898 16.784C74.5393 17.4947 74.86 18.4567 74.86 19.67C74.86 20.71 74.5653 21.6633 73.976 22.53C73.404 23.3793 72.5373 24.0553 71.376 24.558C70.2147 25.0607 68.802 25.312 67.138 25.312ZM91.5441 11.012V25H87.6961V23.336C87.1587 23.9427 86.5174 24.4107 85.7721 24.74C85.0267 25.052 84.2207 25.208 83.3541 25.208C81.5167 25.208 80.0607 24.6793 78.9861 23.622C77.9114 22.5647 77.3741 20.996 77.3741 18.916V11.012H81.4301V18.318C81.4301 20.5713 82.3747 21.698 84.2641 21.698C85.2347 21.698 86.0147 21.386 86.6041 20.762C87.1934 20.1207 87.4881 19.176 87.4881 17.928V11.012H91.5441ZM103.57 10.804C104.87 10.804 106.048 11.1073 107.106 11.714C108.18 12.3033 109.021 13.144 109.628 14.236C110.234 15.3107 110.538 16.5673 110.538 18.006C110.538 19.4447 110.234 20.71 109.628 21.802C109.021 22.8767 108.18 23.7173 107.106 24.324C106.048 24.9133 104.87 25.208 103.57 25.208C101.784 25.208 100.38 24.6447 99.3577 23.518V30.044H95.3017V11.012H99.1757V12.624C100.181 11.4107 101.646 10.804 103.57 10.804ZM102.868 21.88C103.908 21.88 104.757 21.5333 105.416 20.84C106.092 20.1293 106.43 19.1847 106.43 18.006C106.43 16.8273 106.092 15.8913 105.416 15.198C104.757 14.4873 103.908 14.132 102.868 14.132C101.828 14.132 100.97 14.4873 100.294 15.198C99.635 15.8913 99.3057 16.8273 99.3057 18.006C99.3057 19.1847 99.635 20.1293 100.294 20.84C100.97 21.5333 101.828 21.88 102.868 21.88ZM126.955 18.058C126.955 18.11 126.929 18.474 126.877 19.15H116.295C116.486 20.0167 116.936 20.7013 117.647 21.204C118.358 21.7067 119.242 21.958 120.299 21.958C121.027 21.958 121.668 21.854 122.223 21.646C122.795 21.4207 123.324 21.074 123.809 20.606L125.967 22.946C124.65 24.454 122.726 25.208 120.195 25.208C118.618 25.208 117.222 24.9047 116.009 24.298C114.796 23.674 113.86 22.816 113.201 21.724C112.542 20.632 112.213 19.3927 112.213 18.006C112.213 16.6367 112.534 15.406 113.175 14.314C113.834 13.2047 114.726 12.3467 115.853 11.74C116.997 11.116 118.271 10.804 119.675 10.804C121.044 10.804 122.284 11.0987 123.393 11.688C124.502 12.2773 125.369 13.1267 125.993 14.236C126.634 15.328 126.955 16.602 126.955 18.058ZM119.701 13.872C118.782 13.872 118.011 14.132 117.387 14.652C116.763 15.172 116.382 15.8827 116.243 16.784H123.133C122.994 15.9 122.613 15.198 121.989 14.678C121.365 14.1407 120.602 13.872 119.701 13.872ZM133.529 12.858C134.015 12.182 134.665 11.6707 135.479 11.324C136.311 10.9773 137.265 10.804 138.339 10.804V14.548C137.889 14.5133 137.585 14.496 137.429 14.496C136.268 14.496 135.358 14.8253 134.699 15.484C134.041 16.1253 133.711 17.096 133.711 18.396V25H129.655V11.012H133.529V12.858ZM145.679 11.324H149.267V14.444H145.783V25H141.727V14.444H139.569V11.324H141.727V10.7C141.727 9.10533 142.195 7.84 143.131 6.904C144.085 5.968 145.419 5.5 147.135 5.5C147.742 5.5 148.314 5.56933 148.851 5.708C149.406 5.82933 149.865 6.01133 150.229 6.254L149.163 9.192C148.695 8.86267 148.149 8.698 147.525 8.698C146.295 8.698 145.679 9.374 145.679 10.726V11.324ZM153.375 11.012H157.431V25H153.375V11.012ZM155.403 9.062C154.658 9.062 154.051 8.84533 153.583 8.412C153.115 7.97867 152.881 7.44133 152.881 6.8C152.881 6.15867 153.115 5.62133 153.583 5.188C154.051 4.75467 154.658 4.538 155.403 4.538C156.149 4.538 156.755 4.746 157.223 5.162C157.691 5.578 157.925 6.098 157.925 6.722C157.925 7.398 157.691 7.96133 157.223 8.412C156.755 8.84533 156.149 9.062 155.403 9.062ZM170.212 24.324C169.814 24.6187 169.32 24.844 168.73 25C168.158 25.1387 167.552 25.208 166.91 25.208C165.246 25.208 163.955 24.7833 163.036 23.934C162.135 23.0847 161.684 21.8367 161.684 20.19V14.444H159.526V11.324H161.684V7.918H165.74V11.324H169.224V14.444H165.74V20.138C165.74 20.7273 165.888 21.1867 166.182 21.516C166.494 21.828 166.928 21.984 167.482 21.984C168.124 21.984 168.67 21.8107 169.12 21.464L170.212 24.324Z" fill="#2D2D2D"/>
</svg>
