<svg width="100" height="100" viewBox="0 0 142 157" fill="none" xmlns="http://www.w3.org/2000/svg">
<path d="M51.685 137.43C52.4944 140.613 53.7597 145.445 55.3427 151.165C55.9299 153.287 58.1136 154.529 60.2356 153.942C86.0247 146.811 131.635 134.378 134.293 134.378C136.876 134.378 128.295 112.474 122.643 99.0207C121.881 97.2072 122.548 95.1214 124.023 93.8204C130.142 88.4247 138.786 76.0534 138.786 56.4722C140.284 45.1683 134.293 17.0611 108.833 7.89575C96.8517 3.58262 74.3868 0.616758 56.4149 5.60443C42.1956 9.55066 13.848 26.7376 13.4856 63.9981C13.481 64.47 13.3985 64.9477 13.2354 65.3905L3.18182 92.6759C2.50126 94.5229 3.26566 96.5905 4.98401 97.5507L11.6843 101.295C12.8124 101.925 13.5665 103.062 13.7088 104.346L16.2232 127.043C16.3805 128.462 17.2764 129.696 18.6319 130.147C23.5758 131.791 33.6798 134.046 47.7744 134.345C49.6206 134.384 51.2298 135.64 51.685 137.43Z" stroke="#2D2D2D" stroke-width="5"/>
<path d="M72.5 64.5L71.0743 65.9027L72.5584 67.4111L73.9808 65.8443L72.5 64.5ZM102.509 33.5487C102.456 32.4454 101.519 31.5942 100.415 31.6475L82.4362 32.5158C81.3329 32.5691 80.4817 33.5067 80.535 34.61C80.5883 35.7133 81.5259 36.5645 82.6291 36.5112L98.6105 35.7393L99.3824 51.7207C99.4357 52.824 100.373 53.6752 101.477 53.6219C102.58 53.5686 103.431 52.631 103.378 51.5277L102.509 33.5487ZM58.512 50.2824L59.9376 48.8798L58.414 47.3311L56.9964 48.9774L58.512 50.2824ZM73.9808 65.8443L101.992 34.9895L99.0309 32.3008L71.0192 63.1557L73.9808 65.8443ZM44.5274 69.5874L60.0275 51.5875L56.9964 48.9774L41.4964 66.9773L44.5274 69.5874ZM57.0863 51.6851L71.0743 65.9027L73.9257 63.0973L59.9376 48.8798L57.0863 51.6851Z" fill="#2D2D2D"/>
</svg>
